<?xml version="1.0" encoding="utf-8"?>
<svg viewBox="0 0 500 500" xmlns="http://www.w3.org/2000/svg">
  <ellipse style="stroke: rgb(0, 0, 0); fill: rgb(235, 59, 91);" cx="249.177" cy="-249.776" rx="247.084" ry="248.581" transform="matrix(1, 0, 0, -1, 0, 0)"/>
  <path d="M 187.042 262.226 C 187.042 278.189 173.724 288.167 163.07 280.183 C 158.125 276.479 155.077 269.633 155.077 262.226 C 155.077 246.259 168.395 236.279 179.049 244.263 C 183.993 247.967 187.042 254.815 187.042 262.226 Z M 346.856 262.226 C 346.856 278.189 333.54 288.167 322.884 280.183 C 317.938 276.479 314.895 269.633 314.895 262.226 C 314.895 246.259 328.212 236.279 338.867 244.263 C 343.812 247.967 346.856 254.815 346.856 262.226 Z M 219.006 241.483 C 206.701 241.483 199.011 258.768 205.165 272.592 C 208.02 279.01 213.294 282.963 219.006 282.963 L 282.93 282.963 C 295.234 282.963 302.924 265.679 296.771 251.856 C 293.916 245.436 288.642 241.483 282.93 241.483 L 219.006 241.483 Z M 200.817 164.252 L 185.539 203.946 C 182.802 211.273 187.204 219.697 193.463 219.108 C 193.468 219.108 193.474 219.108 193.482 219.108 C 208.024 217.593 231.037 215.581 250.967 215.581 C 270.897 215.581 293.925 217.593 308.453 219.108 C 314.71 219.714 319.129 211.305 316.405 203.972 C 316.403 203.964 316.401 203.954 316.398 203.946 L 301.119 164.273 C 299.768 160.756 297.003 158.532 293.974 158.529 L 207.961 158.529 C 204.935 158.529 202.171 160.743 200.817 164.252 Z" style="fill: rgb(222, 226, 230);"/>
  <path fill-rule="evenodd" d="M 163.514 154.985 C 169.806 138.245 184.244 127.395 200.214 127.415 L 301.731 127.415 C 317.686 127.415 332.111 138.26 338.401 154.985 L 351.037 188.621 C 352.232 191.807 354.386 194.43 357.1 195.972 C 365.08 200.524 370.741 208.988 372.5 218.941 L 377.845 249.501 C 378.369 252.431 378.626 255.415 378.626 258.419 L 378.626 265.937 C 378.626 280.75 372.401 294.018 362.667 302.282 L 362.667 336.716 C 362.667 341.739 359.098 345.815 354.691 345.815 L 322.779 345.815 C 318.372 345.815 314.799 341.739 314.799 336.716 L 314.799 312.364 C 294.182 313.238 271 313.967 250.972 313.967 C 230.946 313.967 207.764 313.238 187.147 312.364 L 187.147 336.716 C 187.147 341.739 183.575 345.815 179.167 345.815 L 147.254 345.815 C 142.849 345.815 139.279 341.739 139.279 336.716 L 139.279 302.282 C 129.545 294.018 123.32 280.75 123.32 265.937 L 123.32 258.419 C 123.322 255.424 123.585 252.436 124.101 249.501 L 129.449 218.923 C 131.203 208.988 136.867 200.507 144.831 195.972 C 147.554 194.418 149.711 191.815 150.909 188.621 L 163.549 154.985 L 163.514 154.985 Z M 200.214 145.613 C 190.637 145.615 181.979 152.129 178.21 162.176 L 165.574 195.793 C 162.895 202.945 158.07 208.776 151.963 212.244 C 148.407 214.273 145.877 218.061 145.101 222.508 L 139.738 253.069 C 139.427 254.829 139.267 256.621 139.262 258.419 L 139.262 265.937 C 139.262 280.421 149.153 292.289 161.729 292.944 C 186.542 294.216 222.14 295.763 250.956 295.763 C 279.775 295.763 315.374 294.237 340.185 292.944 C 352.806 292.253 362.71 280.344 362.655 265.937 L 362.655 258.419 C 362.655 256.614 362.494 254.835 362.173 253.069 L 356.828 222.491 C 356.049 218.05 353.518 214.269 349.968 212.244 C 343.868 208.768 339.045 202.938 336.356 195.793 L 323.719 162.157 C 319.945 152.113 311.28 145.603 301.698 145.613 L 200.214 145.613 Z" style="fill: rgb(222, 226, 230);"/>
</svg>