<?xml version="1.0" encoding="utf-8"?>
<svg viewBox="0 0 500 500" xmlns="http://www.w3.org/2000/svg">
  <ellipse style="stroke: rgb(0, 0, 0); fill: rgb(255, 255, 255);" cx="249.77" cy="250.077" rx="248.853" ry="248.853"/>
  <path d="M 274.881 154.841 C 274.881 171.165 256.125 181.369 241.118 173.207 C 234.154 169.417 229.863 162.417 229.863 154.841 L 201.729 154.841 C 192.406 154.841 184.848 161.961 184.848 170.745 L 184.848 308.594 C 184.848 317.378 192.406 324.498 201.729 324.498 L 303.016 324.498 C 312.339 324.498 319.896 317.378 319.896 308.594 L 319.896 170.745 C 319.896 161.961 312.339 154.841 303.016 154.841 L 274.881 154.841 Z M 212.983 207.858 L 291.761 207.858 C 296.094 207.858 298.799 212.277 296.635 215.811 C 295.63 217.452 293.772 218.463 291.761 218.463 L 212.983 218.463 C 208.65 218.463 205.946 214.044 208.11 210.51 C 209.114 208.87 210.973 207.858 212.983 207.858 Z M 212.983 229.066 L 257.999 229.066 C 262.331 229.066 265.038 233.485 262.871 237.018 C 261.866 238.66 260.009 239.668 257.999 239.668 L 212.983 239.668 C 208.65 239.668 205.946 235.252 208.11 231.718 C 209.114 230.076 210.973 229.066 212.983 229.066 Z" style="fill: rgba(0, 102, 255, 0.82);"/>
</svg>