<?xml version="1.0" encoding="utf-8"?>
<svg viewBox="0 0 500 500" xmlns="http://www.w3.org/2000/svg">
  <ellipse style="stroke: rgb(0, 0, 0); fill: rgb(255, 255, 255);" cx="249.775" cy="250.074" rx="247.083" ry="248.878"/>
  <path fill-rule="evenodd" d="M 246.185 161.053 L 334.018 250.073 L 334.018 312.491 C 334.018 324.783 324.189 334.746 312.061 334.746 L 180.309 334.746 C 168.182 334.746 158.348 324.783 158.348 312.491 L 158.348 250.073 L 246.185 161.053 Z M 319.381 149.287 L 319.381 201.214 L 290.101 171.543 L 290.101 149.287 C 290.101 145.19 293.378 141.87 297.424 141.87 L 312.061 141.87 C 316.104 141.87 319.381 145.19 319.381 149.287 Z" style="fill: rgb(235, 59, 90);"/>
  <path fill-rule="evenodd" d="M 235.835 134.451 C 241.551 128.658 250.819 128.658 256.536 134.451 L 353.84 233.055 C 357.833 237.098 356.003 244.003 350.554 245.48 C 348.027 246.169 345.328 245.436 343.475 243.56 L 246.185 144.941 L 148.892 243.56 C 144.903 247.602 138.092 245.753 136.633 240.229 C 135.954 237.667 136.678 234.931 138.528 233.055 L 235.835 134.451 Z" style="fill: rgb(235, 59, 90);"/>
</svg>