<?xml version="1.0" encoding="utf-8"?>
<svg viewBox="0 0 500 500" xmlns="http://www.w3.org/2000/svg">
  <ellipse style="stroke: rgb(0, 0, 0); fill: rgb(254, 251, 251);" cx="248.579" cy="249.402" rx="248.853" ry="248.853"/>
  <path d="M 279.464 107.739 C 279.464 131.891 251.236 146.989 228.65 134.913 C 218.169 129.304 211.712 118.948 211.712 107.739 L 169.368 107.739 C 155.337 107.739 143.963 118.274 143.963 131.269 L 143.963 335.228 C 143.963 348.226 155.337 358.759 169.368 358.759 L 321.807 358.759 C 335.839 358.759 347.213 348.226 347.213 335.228 L 347.213 131.269 C 347.213 118.274 335.839 107.739 321.807 107.739 L 279.464 107.739 Z M 186.306 186.181 L 304.869 186.181 C 311.391 186.181 315.461 192.721 312.205 197.949 C 310.691 200.376 307.895 201.872 304.869 201.872 L 186.306 201.872 C 179.785 201.872 175.716 195.334 178.972 190.106 C 180.482 187.678 183.281 186.181 186.306 186.181 Z M 186.306 217.561 L 254.056 217.561 C 260.576 217.561 264.651 224.098 261.389 229.326 C 259.877 231.755 257.081 233.247 254.056 233.247 L 186.306 233.247 C 179.785 233.247 175.716 226.713 178.972 221.485 C 180.482 219.054 183.281 217.561 186.306 217.561 Z" style="fill: rgba(0, 130, 200, 0.82);"/>
</svg>