<?xml version="1.0" encoding="utf-8"?>
<svg viewBox="0 0 500 500" xmlns="http://www.w3.org/2000/svg">
  <ellipse style="stroke: rgb(0, 0, 0); fill: rgb(255, 255, 255);" cx="249.776" cy="248.878" rx="247.083" ry="249.178"/>
  <path d="M 228.105 237.51 C 263.137 237.51 285.036 193.756 267.517 158.753 C 259.389 142.508 244.362 132.498 228.105 132.498 C 193.068 132.498 171.173 176.251 188.689 211.261 C 196.816 227.504 211.844 237.51 228.105 237.51 Z M 258.445 185.004 C 258.445 211.952 233.16 228.792 212.93 215.32 C 203.544 209.068 197.761 197.512 197.761 185.004 C 197.761 158.06 223.047 141.218 243.274 154.691 C 252.66 160.945 258.445 172.501 258.445 185.004 Z M 319.126 325.02 C 319.126 342.526 303.955 342.526 303.955 342.526 L 152.248 342.526 C 152.248 342.526 137.08 342.526 137.08 325.02 C 137.08 307.522 152.248 255.014 228.105 255.014 C 303.955 255.014 319.126 307.522 319.126 325.02 Z M 303.955 324.953 C 303.941 320.648 301.619 307.695 291.333 295.827 C 281.441 284.418 262.828 272.516 228.105 272.516 C 193.362 272.516 174.763 284.418 164.872 295.827 C 154.586 307.695 152.282 320.648 152.248 324.953 L 303.955 324.953 Z" style="fill: rgb(255, 255, 255);"/>
  <path fill-rule="evenodd" d="M 377.593 187.56 C 380.565 190.981 380.565 196.532 377.593 199.952 L 332.082 252.459 C 329.119 255.885 324.305 255.885 321.341 252.459 L 298.586 226.207 C 294.45 221.436 296.342 213.292 301.992 211.545 C 304.613 210.738 307.407 211.601 309.326 213.813 L 326.711 233.889 L 366.853 187.56 C 369.82 184.133 374.631 184.133 377.593 187.56 Z" style="fill: rgb(255, 255, 255);"/>
  <path fill-rule="evenodd" d="M 377.594 186.977 C 380.565 190.416 380.565 195.999 377.594 199.438 L 332.082 252.245 C 329.117 255.692 324.304 255.692 321.341 252.245 L 298.585 225.841 C 294.451 221.045 296.342 212.854 301.99 211.099 C 304.61 210.285 307.406 211.152 309.326 213.38 L 326.711 233.569 L 366.853 186.977 C 369.816 183.529 374.629 183.529 377.594 186.977 Z" style="fill: rgb(235, 59, 90);"/>
  <path d="M 152.249 342.823 C 152.249 342.823 137.079 342.823 137.079 325.22 C 137.079 307.62 152.249 254.814 228.103 254.814 C 303.955 254.814 319.126 307.62 319.126 325.22 C 319.126 342.823 303.955 342.823 303.955 342.823 L 152.249 342.823 Z M 228.103 237.213 C 263.137 237.213 285.035 193.207 267.517 158.004 C 259.387 141.666 244.362 131.601 228.103 131.601 C 193.067 131.601 171.171 175.607 188.687 210.81 C 196.817 227.149 211.842 237.213 228.103 237.213 Z" style="fill: rgb(235, 59, 90);"/>
</svg>