<?xml version="1.0" encoding="utf-8"?>
<svg viewBox="0 0 500 500" xmlns="http://www.w3.org/2000/svg">
  <ellipse style="stroke: rgb(0, 0, 0); fill: rgb(255, 254, 254);" cx="250.081" cy="249.755" rx="249.1" ry="248.445"/>
  <path fill-rule="evenodd" d="M 137.635 116.458 C 150.768 103.04 172.415 104.426 183.816 119.409 L 215.575 161.155 C 221.396 168.816 223.447 178.788 221.148 188.204 L 211.47 227.852 C 210.453 232.028 211.647 236.444 214.619 239.49 L 258.092 283.973 C 261.073 287.018 265.399 288.242 269.488 287.195 L 308.217 277.293 C 317.418 274.939 327.164 277.04 334.652 282.995 L 375.451 315.471 C 390.12 327.15 391.465 349.325 378.338 362.743 L 360.041 381.461 C 346.948 394.859 327.38 400.743 309.138 394.174 C 262.45 377.363 220.057 350.012 185.106 314.153 C 150.061 278.394 123.332 235.028 106.901 187.262 C 100.497 168.612 106.245 148.574 119.34 135.175 L 137.635 116.458 Z" style="fill: rgba(0, 130, 200, 0.82);"/>
</svg>