<?xml version="1.0" encoding="utf-8"?>
<svg viewBox="0 0 500 500" xmlns="http://www.w3.org/2000/svg">
  <ellipse style="stroke: rgb(0, 0, 0); fill: rgb(254, 255, 255);" cx="249.177" cy="-250.075" rx="247.084" ry="248.581" transform="matrix(1, 0, 0, -1, 0, 0)"/>
  <path fill-rule="evenodd" d="M 163.514 155.284 C 169.806 138.544 184.244 127.694 200.214 127.714 L 301.731 127.714 C 317.686 127.714 332.111 138.559 338.401 155.284 L 351.037 188.92 C 352.232 192.106 354.386 194.729 357.1 196.271 C 365.08 200.823 370.741 209.287 372.5 219.24 L 377.845 249.8 C 378.369 252.73 378.626 255.714 378.626 258.718 L 378.626 266.236 C 378.626 281.049 372.401 294.317 362.667 302.581 L 362.667 337.015 C 362.667 342.038 359.098 346.114 354.691 346.114 L 322.779 346.114 C 318.372 346.114 314.799 342.038 314.799 337.015 L 314.799 312.663 C 294.182 313.537 271 314.266 250.972 314.266 C 230.946 314.266 207.764 313.537 187.147 312.663 L 187.147 337.015 C 187.147 342.038 183.575 346.114 179.167 346.114 L 147.254 346.114 C 142.849 346.114 139.279 342.038 139.279 337.015 L 139.279 302.581 C 129.545 294.317 123.32 281.049 123.32 266.236 L 123.32 258.718 C 123.322 255.723 123.585 252.735 124.101 249.8 L 129.449 219.222 C 131.203 209.287 136.867 200.806 144.831 196.271 C 147.554 194.717 149.711 192.114 150.909 188.92 L 163.549 155.284 L 163.514 155.284 Z M 200.214 145.912 C 190.637 145.914 181.979 152.428 178.21 162.475 L 165.574 196.092 C 162.895 203.244 158.07 209.075 151.963 212.543 C 148.407 214.572 145.877 218.36 145.101 222.807 L 139.738 253.368 C 139.427 255.128 139.267 256.92 139.262 258.718 L 139.262 266.236 C 139.262 280.72 149.153 292.588 161.729 293.243 C 186.542 294.515 222.14 296.062 250.956 296.062 C 279.775 296.062 315.374 294.536 340.185 293.243 C 352.806 292.552 362.71 280.643 362.655 266.236 L 362.655 258.718 C 362.655 256.913 362.494 255.134 362.173 253.368 L 356.828 222.79 C 356.049 218.349 353.518 214.568 349.968 212.543 C 343.868 209.067 339.045 203.237 336.356 196.092 L 323.719 162.456 C 319.945 152.412 311.28 145.902 301.698 145.912 L 200.214 145.912 Z" style=""/>
  <path fill-rule="evenodd" d="M 162.695 155.131 C 169.039 138.292 183.617 127.386 199.739 127.413 L 302.206 127.413 C 318.315 127.413 332.873 138.322 339.219 155.131 L 351.976 188.949 C 353.182 192.152 355.359 194.795 358.095 196.34 C 366.148 200.923 371.866 209.411 373.638 219.42 L 379.033 250.143 C 379.565 253.095 379.822 256.104 379.822 259.111 L 379.822 266.672 C 379.822 281.57 373.543 294.923 363.717 303.216 L 363.717 337.847 C 363.717 342.908 360.109 347.012 355.663 347.012 L 323.451 347.012 C 319.005 347.012 315.4 342.908 315.4 337.847 L 315.4 313.363 C 294.59 314.235 271.187 314.965 250.973 314.965 C 230.761 314.965 207.358 314.235 186.548 313.363 L 186.548 337.847 C 186.548 342.908 182.94 347.012 178.496 347.012 L 146.283 347.012 C 141.836 347.012 138.231 342.908 138.231 337.847 L 138.231 303.216 C 128.406 294.923 122.124 281.57 122.124 266.672 L 122.124 259.111 C 122.124 256.104 122.381 253.123 122.912 250.143 L 128.307 219.42 C 130.08 209.411 135.797 200.895 143.835 196.34 C 146.588 194.766 148.763 192.152 149.972 188.949 L 162.727 155.131 L 162.695 155.131 Z M 170.426 273.811 C 182.827 273.811 190.574 258.549 184.374 246.35 C 181.491 240.697 176.176 237.213 170.426 237.213 C 158.024 237.213 150.276 252.45 156.478 264.647 C 159.345 270.326 164.675 273.811 170.426 273.811 Z M 331.489 273.811 C 343.89 273.811 351.637 258.549 345.435 246.35 C 342.552 240.697 337.237 237.213 331.489 237.213 C 319.086 237.213 311.339 252.45 317.54 264.647 C 320.407 270.326 325.739 273.811 331.489 273.811 Z M 218.743 237.213 C 206.343 237.213 198.596 252.45 204.796 264.647 C 207.664 270.326 212.995 273.811 218.743 273.811 L 283.169 273.811 C 295.571 273.811 303.318 258.549 297.118 246.35 C 294.234 240.697 288.92 237.213 283.169 237.213 L 218.743 237.213 Z M 168.913 185.77 L 184.308 150.746 C 185.679 147.654 188.465 145.712 191.509 145.712 L 310.405 145.712 C 313.449 145.712 316.236 147.654 317.605 150.746 L 333.002 185.77 C 335.757 192.236 331.328 199.656 325.012 199.152 C 325.012 199.152 324.997 199.122 324.997 199.122 C 310.341 197.801 271.041 196.031 250.958 196.031 C 230.874 196.031 191.558 197.801 176.918 199.122 C 170.603 199.685 166.158 192.265 168.897 185.77 C 168.897 185.77 168.913 185.77 168.913 185.77 Z" style="fill: rgb(235, 59, 90);"/>
</svg>