<?xml version="1.0" encoding="utf-8"?>
<svg viewBox="0 0 500 500" xmlns="http://www.w3.org/2000/svg">
  <ellipse style="stroke: rgb(0, 0, 0); fill: rgb(235, 59, 90);" cx="249.776" cy="249.775" rx="247.083" ry="247.383"/>
  <path fill-rule="evenodd" d="M 157.693 320.294 L 157.693 217.48 L 172.794 217.48 L 172.794 320.294 C 172.794 324.662 176.169 328.2 180.341 328.2 L 316.216 328.2 C 320.388 328.2 323.769 324.662 323.769 320.294 L 323.769 217.48 L 338.866 217.48 L 338.866 320.294 C 338.866 333.394 328.726 344.019 316.216 344.019 L 180.341 344.019 C 167.834 344.019 157.693 333.394 157.693 320.294 Z M 323.769 146.3 L 323.769 201.662 L 293.573 170.028 L 293.573 146.3 C 293.573 141.933 296.954 138.393 301.122 138.393 L 316.216 138.393 C 320.388 138.393 323.769 141.933 323.769 146.3 Z" style="fill: rgb(255, 255, 255);"/>
  <path fill-rule="evenodd" d="M 238.263 129.653 C 244.291 123.479 254.062 123.479 260.091 129.653 L 362.7 234.777 C 366.905 239.087 364.981 246.447 359.231 248.025 C 356.565 248.759 353.721 247.976 351.769 245.977 L 249.178 140.838 L 146.583 245.977 C 142.377 250.284 135.197 248.315 133.654 242.427 C 132.939 239.693 133.702 236.776 135.654 234.777 L 238.263 129.653 Z" style="fill: rgb(255, 255, 255);"/>
</svg>