<?xml version="1.0" encoding="utf-8"?>
<svg viewBox="0 0 500 500" xmlns="http://www.w3.org/2000/svg">
  <ellipse style="stroke: rgb(0, 0, 0); fill: rgb(235, 59, 90);" cx="250.374" cy="249.775" rx="247.083" ry="249.178"/>
  <path d="M 228.703 238.407 C 263.735 238.407 285.634 194.653 268.115 159.65 C 259.987 143.405 244.96 133.395 228.703 133.395 C 193.666 133.395 171.771 177.148 189.287 212.158 C 197.414 228.401 212.442 238.407 228.703 238.407 Z M 259.043 185.901 C 259.043 212.849 233.758 229.689 213.528 216.217 C 204.142 209.965 198.359 198.409 198.359 185.901 C 198.359 158.957 223.645 142.115 243.872 155.588 C 253.258 161.842 259.043 173.398 259.043 185.901 Z M 319.724 325.917 C 319.724 343.423 304.553 343.423 304.553 343.423 L 152.846 343.423 C 152.846 343.423 137.678 343.423 137.678 325.917 C 137.678 308.419 152.846 255.911 228.703 255.911 C 304.553 255.911 319.724 308.419 319.724 325.917 Z M 304.553 325.85 C 304.539 321.545 302.217 308.592 291.931 296.724 C 282.039 285.315 263.426 273.413 228.703 273.413 C 193.96 273.413 175.361 285.315 165.47 296.724 C 155.184 308.592 152.88 321.545 152.846 325.85 L 304.553 325.85 Z" style="fill: rgb(255, 255, 255);"/>
  <path fill-rule="evenodd" d="M 378.191 188.457 C 381.163 191.878 381.163 197.429 378.191 200.849 L 332.68 253.356 C 329.717 256.782 324.903 256.782 321.939 253.356 L 299.184 227.104 C 295.048 222.333 296.94 214.189 302.59 212.442 C 305.211 211.635 308.005 212.498 309.924 214.71 L 327.309 234.786 L 367.451 188.457 C 370.418 185.03 375.229 185.03 378.191 188.457 Z" style="fill: rgb(255, 255, 255);"/>
</svg>